<svg width="328" height="112" viewBox="0 0 328 112" fill="none" xmlns="http://www.w3.org/2000/svg">
<path d="M10.0804 74V37.6364H34.5833V43.9751H17.7686V52.6399H33.3226V58.9787H17.7686V67.6612H34.6543V74H10.0804ZM40.4826 74V68.4602L53.4265 56.4751C54.5273 55.4098 55.4506 54.451 56.1964 53.5987C56.954 52.7464 57.5281 51.9119 57.9187 51.0952C58.3093 50.2666 58.5046 49.3729 58.5046 48.4141C58.5046 47.3487 58.262 46.4313 57.7766 45.6619C57.2913 44.8807 56.6284 44.2829 55.788 43.8686C54.9476 43.4425 53.9947 43.2294 52.9293 43.2294C51.8166 43.2294 50.846 43.4543 50.0174 43.9041C49.1888 44.3539 48.5496 44.9991 48.0998 45.8395C47.65 46.6799 47.4251 47.6802 47.4251 48.8402H40.1275C40.1275 46.4609 40.6661 44.3954 41.7433 42.6435C42.8204 40.8916 44.3297 39.5362 46.271 38.5774C48.2122 37.6186 50.4495 37.1392 52.9826 37.1392C55.5868 37.1392 57.8536 37.6009 59.783 38.5241C61.7243 39.4356 63.2335 40.7022 64.3107 42.3239C65.3879 43.9455 65.9265 45.804 65.9265 47.8991C65.9265 49.2723 65.6542 50.6276 65.1097 51.9652C64.5771 53.3028 63.6242 54.7884 62.2511 56.4219C60.878 58.0436 58.9426 59.9908 56.445 62.2635L51.136 67.4659V67.7145H66.4059V74H40.4826ZM72.1898 74V37.6364H96.6926V43.9751H79.878V52.6399H95.432V58.9787H79.878V67.6612H96.7637V74H72.1898Z" fill="#F5F5F5"/>
<path d="M102.805 74V37.6364H117.365C120.04 37.6364 122.271 38.0329 124.059 38.826C125.846 39.6191 127.19 40.7199 128.089 42.1286C128.989 43.5253 129.439 45.1352 129.439 46.9581C129.439 48.3786 129.154 49.6274 128.586 50.7045C128.018 51.7699 127.237 52.6458 126.243 53.3324C125.26 54.0071 124.136 54.4865 122.869 54.7706V55.1257C124.254 55.1849 125.55 55.5755 126.757 56.2976C127.977 57.0196 128.965 58.0317 129.723 59.3338C130.48 60.6241 130.859 62.1629 130.859 63.9503C130.859 65.8797 130.38 67.602 129.421 69.1172C128.474 70.6205 127.071 71.8101 125.213 72.6861C123.354 73.562 121.064 74 118.341 74H102.805ZM110.493 67.7145H116.761C118.904 67.7145 120.466 67.3061 121.449 66.4893C122.431 65.6607 122.922 64.5599 122.922 63.1868C122.922 62.1806 122.68 61.2929 122.194 60.5234C121.709 59.754 121.016 59.1503 120.117 58.7124C119.229 58.2744 118.17 58.0554 116.939 58.0554H110.493V67.7145ZM110.493 52.853H116.193C117.246 52.853 118.181 52.6695 118.998 52.3026C119.827 51.9238 120.478 51.3911 120.951 50.7045C121.437 50.018 121.679 49.1953 121.679 48.2365C121.679 46.9226 121.212 45.8632 120.277 45.0582C119.353 44.2533 118.039 43.8509 116.335 43.8509H110.493V52.853ZM153.209 62.3878V46.7273H160.773V74H153.511V69.0462H153.227C152.611 70.6442 151.587 71.9285 150.155 72.8991C148.735 73.8698 147 74.3551 144.953 74.3551C143.13 74.3551 141.526 73.9408 140.141 73.1122C138.756 72.2836 137.673 71.1058 136.892 69.5788C136.122 68.0518 135.731 66.223 135.72 64.0923V46.7273H143.284V62.7429C143.295 64.3527 143.727 65.6252 144.58 66.5604C145.432 67.4955 146.574 67.9631 148.007 67.9631C148.918 67.9631 149.77 67.7559 150.563 67.3416C151.356 66.9155 151.996 66.2881 152.481 65.4595C152.978 64.6309 153.221 63.607 153.209 62.3878ZM166.823 74V46.7273H174.156V51.4858H174.44C174.938 49.7931 175.772 48.5147 176.944 47.6506C178.116 46.7746 179.465 46.3366 180.992 46.3366C181.371 46.3366 181.779 46.3603 182.217 46.4077C182.655 46.455 183.04 46.5201 183.371 46.603V53.3146C183.016 53.2081 182.525 53.1134 181.898 53.0305C181.27 52.9477 180.696 52.9062 180.175 52.9062C179.063 52.9062 178.068 53.1489 177.192 53.6342C176.328 54.1077 175.642 54.7706 175.133 55.6229C174.636 56.4751 174.387 57.4576 174.387 58.5703V74H166.823ZM198.3 84.7955C195.849 84.7955 193.748 84.4581 191.996 83.7834C190.256 83.1205 188.871 82.215 187.841 81.0668C186.812 79.9186 186.143 78.6283 185.835 77.196L192.831 76.255C193.044 76.7995 193.381 77.3085 193.843 77.782C194.305 78.2554 194.914 78.6342 195.672 78.9183C196.441 79.2143 197.376 79.3622 198.477 79.3622C200.122 79.3622 201.478 78.9598 202.543 78.1548C203.62 77.3617 204.159 76.0301 204.159 74.1598V69.1705H203.839C203.508 69.928 203.011 70.6442 202.348 71.3189C201.685 71.9936 200.833 72.544 199.791 72.9702C198.749 73.3963 197.506 73.6094 196.062 73.6094C194.015 73.6094 192.15 73.1359 190.469 72.1889C188.8 71.2301 187.469 69.7682 186.474 67.8033C185.492 65.8265 185.001 63.3288 185.001 60.3104C185.001 57.2209 185.504 54.6404 186.51 52.5689C187.516 50.4974 188.854 48.9467 190.523 47.9169C192.203 46.8871 194.044 46.3722 196.045 46.3722C197.572 46.3722 198.85 46.6326 199.88 47.1534C200.91 47.6624 201.738 48.3016 202.366 49.071C203.005 49.8286 203.496 50.5743 203.839 51.3082H204.123V46.7273H211.634V74.2663C211.634 76.5864 211.066 78.5277 209.93 80.0902C208.793 81.6527 207.219 82.8246 205.206 83.6058C203.206 84.3989 200.904 84.7955 198.3 84.7955ZM198.459 67.9276C199.679 67.9276 200.708 67.6257 201.549 67.022C202.401 66.4065 203.052 65.5305 203.502 64.3942C203.964 63.246 204.194 61.8729 204.194 60.2749C204.194 58.6768 203.97 57.2919 203.52 56.12C203.07 54.9363 202.419 54.0189 201.567 53.3679C200.714 52.7169 199.679 52.3913 198.459 52.3913C197.216 52.3913 196.169 52.7287 195.317 53.4034C194.464 54.0663 193.819 54.9896 193.381 56.1733C192.943 57.357 192.724 58.7242 192.724 60.2749C192.724 61.8492 192.943 63.2105 193.381 64.3587C193.831 65.495 194.476 66.3769 195.317 67.0043C196.169 67.6198 197.216 67.9276 198.459 67.9276ZM235.143 62.3878V46.7273H242.706V74H235.444V69.0462H235.16C234.545 70.6442 233.521 71.9285 232.089 72.8991C230.668 73.8698 228.934 74.3551 226.886 74.3551C225.063 74.3551 223.459 73.9408 222.074 73.1122C220.689 72.2836 219.606 71.1058 218.825 69.5788C218.056 68.0518 217.665 66.223 217.653 64.0923V46.7273H225.217V62.7429C225.229 64.3527 225.661 65.6252 226.513 66.5604C227.366 67.4955 228.508 67.9631 229.94 67.9631C230.852 67.9631 231.704 67.7559 232.497 67.3416C233.29 66.9155 233.929 66.2881 234.415 65.4595C234.912 64.6309 235.154 63.607 235.143 62.3878ZM261.186 74.5327C258.38 74.5327 255.966 73.9645 253.941 72.8281C251.929 71.6799 250.378 70.0582 249.289 67.9631C248.2 65.8561 247.656 63.3643 247.656 60.4879C247.656 57.6825 248.2 55.2204 249.289 53.1016C250.378 50.9827 251.911 49.3314 253.888 48.1477C255.877 46.964 258.209 46.3722 260.884 46.3722C262.683 46.3722 264.358 46.6622 265.909 47.2422C267.471 47.8104 268.833 48.6686 269.993 49.8168C271.164 50.965 272.076 52.4091 272.727 54.1491C273.378 55.8774 273.703 57.9015 273.703 60.2216V62.299H250.674V57.6115H266.583C266.583 56.5225 266.347 55.5578 265.873 54.7173C265.4 53.8769 264.743 53.2199 263.902 52.7464C263.074 52.2611 262.109 52.0185 261.008 52.0185C259.86 52.0185 258.842 52.2848 257.954 52.8175C257.078 53.3383 256.392 54.0426 255.895 54.9304C255.397 55.8063 255.143 56.7829 255.131 57.8601V62.3168C255.131 63.6662 255.38 64.8321 255.877 65.8146C256.386 66.7971 257.102 67.5547 258.025 68.0874C258.949 68.62 260.043 68.8864 261.31 68.8864C262.15 68.8864 262.92 68.768 263.618 68.5312C264.317 68.2945 264.914 67.9394 265.412 67.4659C265.909 66.9924 266.288 66.4124 266.548 65.7259L273.544 66.1875C273.189 67.8684 272.461 69.3362 271.36 70.5909C270.271 71.8338 268.862 72.8045 267.134 73.5028C265.417 74.1894 263.435 74.5327 261.186 74.5327ZM278.64 74V46.7273H285.973V51.4858H286.257C286.754 49.7931 287.588 48.5147 288.76 47.6506C289.932 46.7746 291.282 46.3366 292.809 46.3366C293.187 46.3366 293.596 46.3603 294.034 46.4077C294.472 46.455 294.856 46.5201 295.188 46.603V53.3146C294.833 53.2081 294.342 53.1134 293.714 53.0305C293.087 52.9477 292.513 52.9062 291.992 52.9062C290.879 52.9062 289.885 53.1489 289.009 53.6342C288.145 54.1077 287.458 54.7706 286.949 55.6229C286.452 56.4751 286.203 57.4576 286.203 58.5703V74H278.64Z" fill="#EFE724"/>
<path d="M310.017 46.0072C306.761 46.1119 303.991 46.6527 301.634 47.6398C300.08 48.2926 298.762 49.1169 297.619 50.1534C297.378 50.3729 296.873 50.8905 296.653 51.1463C295.506 52.4751 294.667 54.0713 294.196 55.8217C294.114 56.1226 294.096 56.2403 294.088 56.5006C294.065 57.2187 294.319 57.8584 294.831 58.3716C295.158 58.7001 295.552 58.9138 296.012 59.0112L296.17 59.0447H311.043H325.916L326.074 59.0112C326.577 58.9037 327 58.6594 327.347 58.2742C327.788 57.7872 328.023 57.1388 327.998 56.486C327.985 56.1604 327.94 55.951 327.757 55.3666C327.268 53.8038 326.545 52.4634 325.541 51.2597C325.332 51.0082 324.765 50.4136 324.522 50.1926C323.156 48.9409 321.521 47.9829 319.557 47.2836C317.441 46.5306 315.03 46.1119 312.222 46.0116C311.868 45.9985 310.359 45.9956 310.017 46.0072ZM311.944 47.7416C315.026 47.8346 317.63 48.3318 319.828 49.2462C323.163 50.6331 325.31 52.9301 326.25 56.1153C326.318 56.3479 326.33 56.4046 326.336 56.5326C326.34 56.6547 326.337 56.6983 326.312 56.7797C326.239 57.0385 326.024 57.2449 325.771 57.3016C325.633 57.3321 296.452 57.3321 296.313 57.3016C296.183 57.2725 296.075 57.2115 295.973 57.1126C295.746 56.8916 295.691 56.6445 295.788 56.2898C296.084 55.2067 296.574 54.1295 297.172 53.2456C298.866 50.7378 301.724 49.0485 305.631 48.2446C307.528 47.8535 309.77 47.6762 311.944 47.7416Z" fill="#EFE724"/>
<path d="M310.953 50.4324C310.653 50.4717 310.416 50.713 310.363 51.0299C310.352 51.091 310.35 51.3454 310.352 51.7902C310.358 52.4386 310.359 52.4619 310.388 52.5447C310.495 52.8428 310.75 53.0332 311.043 53.0332C311.336 53.0332 311.591 52.8428 311.697 52.5447C311.727 52.4619 311.728 52.4386 311.733 51.7902C311.739 51.0488 311.735 50.9921 311.659 50.8278C311.532 50.5516 311.248 50.3931 310.953 50.4324Z" fill="#EFE724"/>
<path d="M305.927 50.6871C305.815 50.719 305.72 50.7772 305.626 50.8746C305.476 51.0287 305.42 51.1915 305.429 51.4299C305.435 51.5695 305.439 51.5869 305.493 51.6989C305.554 51.8283 305.555 51.8283 306.288 52.6278C306.6 52.968 306.657 53.0116 306.828 53.0552C307.068 53.1134 307.297 53.0465 307.473 52.8663C307.709 52.6249 307.746 52.2324 307.562 51.9504C307.515 51.8791 306.611 50.8819 306.537 50.8179C306.375 50.6827 306.13 50.6304 305.927 50.6871Z" fill="#EFE724"/>
<path d="M315.803 50.6857C315.715 50.7119 315.615 50.7627 315.55 50.818C315.475 50.882 314.571 51.8792 314.523 51.9505C314.339 52.2325 314.376 52.625 314.612 52.8664C314.798 53.0568 315.056 53.1222 315.307 53.0423C315.455 52.9943 315.511 52.9449 316.032 52.3721C316.504 51.8545 316.54 51.8124 316.594 51.6975C316.648 51.5827 316.652 51.5681 316.656 51.4271C316.665 51.1902 316.608 51.0288 316.459 50.8747C316.289 50.6959 316.031 50.6217 315.803 50.6857Z" fill="#EFE724"/>
<path d="M294.929 61.0218C294.551 61.1192 294.291 61.4638 294.291 61.8708C294.291 62.2633 294.552 62.6093 294.922 62.7082C294.994 62.7271 295.785 62.73 301.89 62.73H308.778L309.082 63.0091C309.588 63.4729 310.692 64.5152 311.625 65.4122C311.873 65.6492 312.131 65.8905 312.201 65.9457C312.589 66.2641 313.058 66.4487 313.592 66.4967C314.091 66.5418 314.677 66.3921 315.12 66.1071C315.17 66.0751 316.199 65.3017 317.408 64.3902L319.604 62.73H323.343C326.637 62.73 327.091 62.7271 327.163 62.7082C327.534 62.6093 327.794 62.2633 327.794 61.8708C327.794 61.4943 327.564 61.1599 327.225 61.0422L327.122 61.0073H323.149H319.176L319.068 61.0465C319.01 61.0698 318.936 61.1032 318.906 61.1236C318.874 61.1439 317.821 61.9377 316.565 62.887C315.161 63.9468 314.241 64.633 314.177 64.6664C314.02 64.7493 313.923 64.7696 313.733 64.7624C313.554 64.7551 313.429 64.7173 313.294 64.6315C313.252 64.6054 312.954 64.3306 312.629 64.0209C311.786 63.2141 311.209 62.6675 310.717 62.2081C309.834 61.3823 309.581 61.1614 309.441 61.0916C309.242 60.9927 309.879 61 302.078 61.0015C296.215 61.0029 294.993 61.0058 294.929 61.0218Z" fill="#EFE724"/>
<path d="M294.943 64.2927C294.727 64.3435 294.513 64.5035 294.403 64.6983C294.301 64.8785 294.265 65.1344 294.312 65.3437C294.355 65.5313 294.494 65.7464 294.645 65.8555C294.704 65.8991 295.263 66.1768 295.431 66.2465C295.828 66.4108 296.208 66.4922 296.655 66.5053C297.196 66.5213 297.616 66.4355 298.181 66.1971L298.439 66.0881L298.504 66.123C298.723 66.2393 299.086 66.3701 299.355 66.4297C300.096 66.594 300.799 66.5126 301.573 66.1753L301.771 66.0881L301.91 66.1564C302.373 66.3788 302.814 66.4893 303.313 66.5053C303.864 66.5242 304.319 66.4312 304.891 66.184L305.109 66.0895L305.257 66.1593C305.734 66.3846 306.161 66.4893 306.654 66.5053C307.121 66.5198 307.538 66.453 307.959 66.2945C308.21 66.1986 308.854 65.9151 308.924 65.8686C309.021 65.8031 309.151 65.649 309.205 65.5342C309.275 65.3917 309.3 65.2667 309.293 65.0995C309.276 64.7012 309.013 64.3755 308.637 64.2927C308.415 64.2432 308.326 64.265 307.794 64.4947C307.33 64.6954 307.182 64.7419 306.921 64.7666C306.658 64.7913 306.369 64.7506 306.113 64.6517C306.052 64.6285 305.874 64.5471 305.718 64.4715C305.364 64.2985 305.309 64.281 305.128 64.281C304.956 64.2825 304.923 64.2927 304.438 64.502C303.901 64.7346 303.768 64.7695 303.43 64.7695C303.076 64.7695 302.872 64.7128 302.417 64.4889C302.043 64.3043 301.974 64.281 301.8 64.281C301.624 64.2796 301.589 64.2912 301.114 64.4962C300.554 64.7375 300.433 64.7695 300.088 64.7695C299.738 64.7695 299.547 64.7172 299.093 64.4947C298.697 64.3014 298.636 64.281 298.458 64.281C298.282 64.281 298.243 64.2941 297.79 64.4904C297.221 64.7361 297.091 64.771 296.739 64.7695C296.385 64.7681 296.213 64.7186 295.728 64.4831C295.556 64.3988 295.382 64.3203 295.342 64.3072C295.237 64.2738 295.051 64.2665 294.943 64.2927Z" fill="white"/>
<path d="M319.987 64.281C319.767 64.3188 319.545 64.4686 319.424 64.659C319.359 64.7622 319.299 64.941 319.287 65.0675C319.262 65.3423 319.392 65.6534 319.604 65.8264C319.692 65.8962 320.266 66.1811 320.514 66.2771C320.714 66.3541 321.038 66.4399 321.256 66.4748C321.465 66.5082 322.034 66.5126 322.227 66.4835C322.586 66.4268 322.899 66.3323 323.28 66.168C323.401 66.1157 323.509 66.0735 323.52 66.0735C323.531 66.0735 323.609 66.1055 323.691 66.1462C324.007 66.2974 324.395 66.421 324.73 66.4733C324.956 66.5097 325.391 66.5184 325.623 66.4893C325.892 66.4573 326.132 66.4021 326.366 66.3207C326.621 66.232 327.335 65.9267 327.423 65.8685C327.583 65.7595 327.729 65.5385 327.775 65.335C327.805 65.2027 327.794 64.9803 327.753 64.8538C327.71 64.7273 327.6 64.5602 327.506 64.4787C327.362 64.3552 327.144 64.2709 326.969 64.2709C326.84 64.2709 326.72 64.3116 326.302 64.4889C325.845 64.6852 325.674 64.739 325.419 64.7651C325.208 64.7869 324.967 64.7651 324.752 64.707C324.573 64.659 324.52 64.6357 324.175 64.4671C323.819 64.2941 323.769 64.2781 323.537 64.2796C323.426 64.2796 323.325 64.2868 323.287 64.2985C323.253 64.3086 323.057 64.3901 322.851 64.4773C322.393 64.6735 322.325 64.6983 322.131 64.739C322.014 64.7622 321.927 64.7695 321.769 64.7695C321.4 64.7695 321.214 64.7172 320.705 64.4715C320.504 64.3755 320.338 64.3043 320.281 64.2927C320.194 64.2723 320.063 64.2679 319.987 64.281Z" fill="white"/>
<path d="M296.163 67.5144C295.104 67.606 294.236 68.3634 294.04 69.3636C293.957 69.7954 293.999 70.1385 294.207 70.7389C294.79 72.4136 295.729 73.8165 297.065 75.0028C299.54 77.2038 303.29 78.5311 308.061 78.896C309.614 79.0138 311.471 79.0327 313.047 78.9469C317.864 78.6808 321.721 77.4771 324.321 75.4287C325.61 74.414 326.593 73.2088 327.26 71.8307C327.527 71.2797 327.805 70.531 327.88 70.169C327.921 69.9713 327.925 69.5773 327.887 69.384C327.733 68.5844 327.172 67.9389 326.381 67.6511C326.198 67.5856 325.946 67.5318 325.734 67.5129C325.534 67.4955 296.363 67.497 296.163 67.5144ZM325.749 69.2647C326.004 69.3214 326.218 69.5075 326.258 69.7081C326.273 69.7852 326.272 69.7939 326.208 69.9916C325.476 72.2552 323.834 74.0477 321.37 75.2703C318.738 76.5772 315.132 77.2678 310.946 77.2678C306.616 77.2678 302.929 76.5351 300.294 75.1525C299.227 74.5914 298.374 73.9604 297.625 73.1768C297.012 72.5343 296.586 71.9397 296.209 71.1983C295.94 70.6705 295.661 69.9437 295.66 69.7663C295.658 69.5555 295.876 69.3374 296.162 69.2647C296.227 69.2488 298.619 69.2458 310.946 69.2444C323.862 69.2429 325.664 69.2458 325.749 69.2647Z" fill="#EFE724"/>
</svg>
